HIERARCHY
ROOT ui
{
	 OFFSET 0 0 0
	 CHANNELS 3 XPosition YPosition Z Position
	 EndSite
	 {
	 OFFSET 0 -1 0
	 }
}
ROOT li
{
	 OFFSET 0 0 0
	 CHANNELS 3 XPosition YPosition Z Position
	 EndSite
	 {
	 OFFSET 0 -1 0
	 }
}
ROOT ul
{
	 OFFSET 0 0 0
	 CHANNELS 3 XPosition YPosition Z Position
	 EndSite
	 {
	 OFFSET 0 -1 0
	 }
}
ROOT ll
{
	 OFFSET 0 0 0
	 CHANNELS 3 XPosition YPosition Z Position
	 EndSite
	 {
	 OFFSET 0 -1 0
	 }
}
ROOT tt
{
	 OFFSET 0 0 0
	 CHANNELS 3 XPosition YPosition Z Position
	 EndSite
	 {
	 OFFSET 0 -1 0
	 }
}
ROOT tb
{
	 OFFSET 0 0 0
	 CHANNELS 3 XPosition YPosition Z Position
	 EndSite
	 {
	 OFFSET 0 -1 0
	 }
}
ROOT td
{
	 OFFSET 0 0 0
	 CHANNELS 3 XPosition YPosition Z Position
	 EndSite
	 {
	 OFFSET 0 -1 0
	 }
}
ROOT v
{
	 OFFSET 0 0 0
	 CHANNELS 3 XPosition YPosition Z Position
	 EndSite
	 {
	 OFFSET 0 -1 0
	 }
}
ROOT bn
{
	 OFFSET 0 0 0
	 CHANNELS 3 XPosition YPosition Z Position
	 EndSite
	 {
	 OFFSET 0 -1 0
	 }
}
MOTION
Frames: 19
Frame Time: 0.002
0.0015947799682617188	-0.0026496100425720216	0		0.47831259155273437	-2.57210888671875	0		-0.8818737182617188	0.27276547241210936	0		-0.3535609130859375	-3.13494677734375	0		1.8701507568359375	-0.8616575927734375	0		3.189989501953125	-0.06490760803222656	0		4.42480126953125	0.00945304012298584	0		5.9080400390625	0.4387287902832031	0		-0.12008372497558593	5.93416015625	0		
0.0013958619832992554	-0.0022878689765930176	0		0.5019414367675781	-2.577257080078125	0		-0.8853356323242187	0.260214111328125	0		-0.489640869140625	-3.1237490234375	0		1.8737010498046875	-0.8724225463867188	0		3.1897890625	-0.06462411499023438	0		4.430767578125	0.017579689025878906	0		5.9116845703125	0.43086407470703125	0		-0.13438352966308595	5.922818359375	0		
0.0012185399532318114	-0.0019639400243759157	0		0.48558334350585936	-2.582610107421875	0		-0.8763422241210937	0.2683692932128906	0		-0.35048269653320313	-3.153323486328125	0		1.87044189453125	-0.87507861328125	0		3.17580078125	-0.055084022521972656	0		4.42786181640625	0.03086127471923828	0		5.8996865234375	0.43930007934570314	0		-0.10497256469726562	5.944537109375	0		
0.0010613009929656982	-0.0016765739917755126	0		0.48741351318359377	-2.580375	0		-0.9484573364257812	0.27117559814453124	0		-0.4695755615234375	-3.145549072265625	0		1.870266357421875	-0.8748302001953125	0		3.179745849609375	-0.049947330474853516	0		4.42599755859375	0.04509496307373047	0		5.91553515625	0.43913088989257815	0		-0.10500578308105468	5.94482666015625	0		
-9.103080034255981E-4	0.0066158342361450195	0		0.48050054931640623	-2.56698828125	0		-0.9485913696289062	0.2714452514648438	0		-0.35090176391601563	-3.152769775390625	0		1.8618839111328125	-0.8854423828125	0		3.173753173828125	-0.0426289176940918	0		4.42998388671875	0.051182353973388675	0		5.915404296875	0.43927603149414063	0		-0.1192633056640625	5.93437548828125	0		
-0.002283068895339966	-0.005141565799713135	0		0.50114697265625	-2.576212890625	0		-0.9627694091796875	0.2689715576171875	0		-0.476086181640625	-3.151935302734375	0		1.8446055908203125	-0.8918948364257813	0		3.194646484375	-0.04189615631103515	0		4.42573779296875	0.045419734954833986	0		5.91147705078125	0.44848782348632815	0		-0.12027561950683593	5.93561669921875	0		
6.918550133705139E-4	-0.0010178849697113038	0		0.47507754516601564	-2.572489013671875	0		-0.895972412109375	0.26377114868164064	0		-0.361464599609375	-3.164142822265625	0		1.8573173828125	-0.8999988403320313	0		3.150756591796875	-0.030828989028930665	0		4.42009130859375	0.06767620849609375	0		5.90718701171875	0.43969207763671875	0		-0.12031478881835937	5.9358056640625	0		
-0.0024859058856964112	-0.004797331809997559	0		0.47496240234375	-2.572335693359375	0		-0.99812646484375	0.26206765747070315	0		-0.49428369140625	-3.148206298828125	0		1.8310330810546875	-0.9083112182617188	0		3.180634033203125	-0.03232360076904297	0		4.42726708984375	0.08064916229248047	0		5.91190673828125	0.4306998901367188	0		-0.10417813110351562	5.944626953125	0		
5.140420198440551E-4	-7.31801986694336E-4	0		0.4898030090332031	-2.575521484375	0		-0.9489891357421875	0.2721742248535156	0		-0.34882937622070315	-3.17112255859375	0		1.84683837890625	-0.9135228271484375	0		3.1829267578125	-0.014253127098083495	0		4.39733740234375	0.0883858413696289	0		5.91118115234375	0.44782220458984373	0		-0.10423702239990235	5.94475634765625	0		
0.0035038049221038817	0.0023089640140533446	0		0.4819828186035156	-2.563252685546875	0		-0.9539766845703125	0.27638214111328124	0		-0.44771340942382815	-3.16095068359375	0		1.8616580810546874	-0.9187315063476562	0		3.161817138671875	-0.01571022415161133	0		4.4215732421875	0.10298420715332031	0		5.9149404296875	0.4398433532714844	0		-0.10626594543457031	5.94690234375	0		
-0.004536333084106445	0.003558207035064697	0		0.5047568664550781	-2.571647705078125	0		-0.896282958984375	0.2642513427734375	0		-0.36690814208984374	-3.1685615234375	0		1.859536376953125	-0.9216002197265625	0		3.11797314453125	-0.004699484825134277	0		4.39851513671875	0.10356269836425781	0		5.91487646484375	0.43994644165039065	0		-0.12057646942138672	5.93627880859375	0		
3.2449498772621157E-4	-4.822219908237457E-4	0		0.4777887878417969	-2.568017578125	0		-0.9673237915039062	0.2657916259765625	0		-0.35821420288085937	-3.18168603515625	0		1.89029345703125	-0.9311697998046875	0		3.14789111328125	-0.0062411890029907225	0		4.40260546875	0.11057131195068359	0		5.91481884765625	0.4400506591796875	0		-0.12163015747070313	5.93836181640625	0		
-0.0028055849075317384	-0.004372161865234375	0		0.5046986694335938	-2.571529541015625	0		-0.89638916015625	0.26434588623046873	0		-0.3582296447753906	-3.18164306640625	0		1.8563673095703126	-0.9253955078125	0		3.137138671875	0.008063438415527344	0		4.3836865234375	0.1170572738647461	0		5.91476708984375	0.4401562805175781	0		-0.10655201721191407	5.947091796875	0		
-0.004678633213043213	0.003700115919113159	0		0.4549101257324219	-2.560449462890625	0		-0.9633348999023438	0.2697642822265625	0		-0.3561887817382812	-3.179657470703125	0		1.8563385009765625	-0.92533984375	0		3.13709814453125	0.008135235786437989	0		4.3939345703125	0.1309330139160156	0		5.91988720703125	0.4481569519042969	0		-0.10666735076904296	5.947123046875	0		
0.025176403045654296	-0.00190378999710083	0		0.507797607421875	-2.5665263671875	0		-0.8924092407226563	0.26729046630859377	0		-0.35617645263671877	-3.17964208984375	0		1.85631787109375	-0.9252919921875	0		3.127358154296875	0.022407264709472657	0		4.39804345703125	0.13793296813964845	0		5.910869140625	0.4494515991210937	0		-0.12101468658447266	5.9364365234375	0		
1.7364799976348877E-4	-3.708780109882355E-4	0		0.4818776245117187	-2.56296533203125	0		-0.96748876953125	0.2658515625	0		-0.3581961059570313	-3.18159375	0		1.8850472412109376	-0.9378524169921875	0		3.142325439453125	0.022156272888183594	0		4.38530712890625	0.15228265380859374	0		5.9108330078125	0.44955752563476564	0		-0.1211383056640625	5.9364462890625	0		
-0.007831010818481445	8.010039925575256E-4	0		0.4969726257324219	-2.55926513671875	0		-0.9675203857421875	0.2658411560058594	0		-0.3592123718261719	-3.183572998046875	0		1.83010986328125	-0.9336712646484375	0		3.122447998046875	0.029628433227539063	0		4.38527734375	0.1523603515625	0		5.91460986328125	0.4405789794921875	0		-0.1080161895751953	5.94817626953125	0		
1.1678300052881241E-4	-3.6333200335502623E-4	0		0.45495162963867186	-2.560380859375	0		-0.9675543212890625	0.26582760620117185	0		-0.3591907958984375	-3.18357666015625	0		1.848070556640625	-0.9350140991210938	0		3.122417724609375	0.029680709838867187	0		4.36225	0.15291148376464844	0		5.9065751953125	0.4408426513671875	0		-0.10716260528564453	5.94715625	0		
8.075600117444993E-5	-3.620559871196747E-4	0		0.484988525390625	-2.558996826171875	0		-0.9854448852539063	0.27318731689453124	0		-0.4528268127441406	-3.1656298828125	0		1.8382791748046876	-0.9237799682617187	0		3.148853759765625	0.05218258666992188	0		4.3866015625	0.17147413635253905	0		5.923861328125	0.4565743103027344	0		-0.22355253601074218	5.93557080078125	0		
